<svg width="500" height="500" viewBox="0 0 500 500" fill="none" xmlns="http://www.w3.org/2000/svg">
<rect width="500" height="500" fill="#3D434B"/>
<g clip-path="url(#clip0)">
<path d="M338.903 346.567C336.988 353.859 330.279 358.416 330.279 358.416C330.279 358.416 326.674 351.151 328.588 343.859C330.503 336.567 337.213 332.01 337.213 332.01C337.213 332.01 340.818 339.276 338.903 346.567Z" fill="#3F3D56"/>
<path d="M335.999 345.025C330.636 350.323 330.036 358.412 330.036 358.412C330.036 358.412 338.131 357.91 343.494 352.611C348.857 347.313 349.457 339.224 349.457 339.224C349.457 339.224 341.362 339.726 335.999 345.025Z" fill="#C6C2FF"/>
<path d="M141.678 318.984H151.778L176.668 309.245C176.668 309.245 194.343 302.031 192.9 315.738C191.457 329.445 188.932 347.841 188.932 347.841C188.932 347.841 180.996 344.234 176.668 345.316C172.339 346.398 175.225 323.313 175.225 323.313C175.225 323.313 139.875 340.266 136.628 338.102C133.382 335.938 132.661 320.788 132.661 320.788L141.678 318.984Z" fill="#2F2E41"/>
<path opacity="0.1" d="M141.678 318.984H151.778L176.668 309.245C176.668 309.245 194.343 302.031 192.9 315.738C191.457 329.445 188.932 347.841 188.932 347.841C188.932 347.841 180.996 344.234 176.668 345.316C172.339 346.398 175.225 323.313 175.225 323.313C175.225 323.313 139.875 340.266 136.628 338.102C133.382 335.938 132.661 320.788 132.661 320.788L141.678 318.984Z" fill="black"/>
<path d="M157.591 287.355L169.814 304.916L198.311 328.723C198.311 328.723 224.643 334.856 221.036 339.184C217.428 343.513 195.425 334.856 195.425 334.856C195.425 334.856 162.6 311.048 161.518 309.245C160.436 307.441 148.532 290.488 148.532 290.488L157.591 287.355Z" fill="#D77F8C"/>
<path opacity="0.1" d="M157.591 287.355L169.814 304.916L198.311 328.723C198.311 328.723 224.643 334.856 221.036 339.184C217.428 343.513 195.425 334.856 195.425 334.856C195.425 334.856 162.6 311.048 161.518 309.245C160.436 307.441 148.532 290.488 148.532 290.488L157.591 287.355Z" fill="black"/>
<path d="M150.336 273.174L158.271 288.684C158.271 288.684 156.468 296.259 153.582 296.981C150.696 297.702 138.432 287.602 138.432 287.602L150.336 273.174Z" fill="#D0CDE1"/>
<path opacity="0.1" d="M150.336 273.174L158.271 288.684C158.271 288.684 156.468 296.259 153.582 296.981C150.696 297.702 138.432 287.602 138.432 287.602L150.336 273.174Z" fill="black"/>
<path d="M247.148 310.953L249.492 320.623C249.518 320.731 249.514 320.844 249.48 320.949L238.847 354.179C238.804 354.311 238.718 354.424 238.603 354.5C238.488 354.576 238.35 354.61 238.212 354.596C238.075 354.582 237.946 354.522 237.847 354.425C237.749 354.328 237.687 354.2 237.671 354.063L236.2 341.118C236.19 341.032 236.199 340.945 236.226 340.863L245.986 310.908C246.027 310.784 246.108 310.675 246.215 310.6C246.323 310.525 246.453 310.487 246.584 310.492C246.715 310.497 246.841 310.545 246.943 310.628C247.045 310.711 247.117 310.826 247.148 310.953Z" fill="#2F2E41"/>
<path d="M246.285 311.77L248.449 320.066L239.071 350.366L236.907 340.988L246.285 311.77Z" fill="#F2F2F2"/>
<path d="M199.032 356.859C199.393 357.941 236.546 356.498 236.907 356.138C237.221 355.686 237.487 355.202 237.7 354.695C238.039 353.973 238.35 353.252 238.35 353.252L236.907 341.572L200.114 340.266C200.114 340.266 199.194 350.164 199.007 354.695C198.96 355.838 198.96 356.643 199.032 356.859Z" fill="#333247"/>
<path opacity="0.1" d="M232.217 343.152L232.939 353.252H216.707V343.152H232.217Z" fill="black"/>
<path opacity="0.1" d="M211.297 346.398L211.393 346.379L210.936 350.727H201.918V346.398H211.297Z" fill="black"/>
<path opacity="0.1" d="M199.032 356.859C199.393 357.941 236.546 356.498 236.907 356.138C237.221 355.686 237.487 355.202 237.7 354.695H199.007C198.96 355.838 198.96 356.643 199.032 356.859Z" fill="black"/>
<path d="M155.746 268.124C164.711 268.124 171.978 260.856 171.978 251.891C171.978 242.927 164.711 235.659 155.746 235.659C146.782 235.659 139.514 242.927 139.514 251.891C139.514 260.856 146.782 268.124 155.746 268.124Z" fill="#D77F8C"/>
<path d="M154.664 266.32C154.664 266.32 149.254 275.699 148.172 280.749C147.089 285.799 131.939 270.649 131.939 270.649L129.956 265.418C129.956 265.418 144.204 258.745 143.122 253.334C142.039 247.924 154.664 266.32 154.664 266.32Z" fill="#D77F8C"/>
<path d="M157.55 294.456L172.339 313.934L207.689 340.266C207.689 340.266 233.299 345.677 227.528 349.645C221.757 353.613 205.164 346.038 205.164 346.038C205.164 346.038 169.453 326.92 161.878 318.984C154.303 311.048 140.235 297.702 140.235 297.702L157.55 294.456Z" fill="#D77F8C"/>
<path d="M137.71 324.756L142.039 331.609L167.872 323.482C173.54 321.699 179.756 322.355 184.783 325.522C189.292 328.363 192.178 332.872 185.685 339.545C172.7 352.891 164.042 345.677 164.042 345.677C164.042 345.677 120.396 366.238 113.182 356.138C105.968 346.038 105.607 340.988 105.607 340.988C105.607 340.988 133.382 323.673 137.71 324.756Z" fill="#2F2E41"/>
<path d="M191.817 348.563C191.817 348.563 203.36 356.138 189.653 359.745C175.946 363.352 165.846 358.302 165.846 358.302C165.846 358.302 153.942 358.302 153.942 352.17C153.942 346.038 157.91 345.316 157.91 345.316L170.174 347.12C170.174 347.12 184.964 343.152 191.817 348.563Z" fill="#D0CDE1"/>
<path d="M169.062 247.808C170.167 248.301 171.262 248.884 172.464 249.027C173.665 249.17 175.033 248.75 175.601 247.682C175.908 247.106 175.943 246.427 175.957 245.774C176.001 243.793 175.857 241.652 174.602 240.119C173.803 239.144 172.637 238.529 171.81 237.577C171.218 236.895 170.824 236.068 170.399 235.271C168.791 232.25 166.41 229.348 163.101 228.477C161.719 228.113 160.269 228.131 158.841 228.151L150.507 228.269C149.159 228.288 147.789 228.31 146.499 228.7C143.816 229.511 141.863 231.767 140.075 233.924C138.736 235.538 137.395 237.168 136.39 239.009C134.951 241.694 134.223 244.704 134.276 247.75C134.265 248.532 134.365 249.311 134.575 250.063C134.821 250.754 135.125 251.422 135.484 252.06C137.047 255.13 137.975 258.964 136.215 261.925C139.272 260.676 142.297 259.038 144.314 256.423C145.216 255.253 145.924 253.884 147.126 253.025C148.328 252.167 150.288 252.092 151.059 253.352C151.324 253.862 151.461 254.429 151.457 255.003C151.513 255.949 151.512 256.931 151.913 257.79C152.314 258.648 153.269 259.341 154.181 259.084C155.751 258.641 155.601 256.231 156.81 255.136C157.729 254.305 159.146 254.464 160.327 254.086C161.702 253.646 162.733 252.455 163.321 251.136C163.768 250.134 163.762 247.511 164.607 246.969C165.668 246.288 168.079 247.37 169.062 247.808Z" fill="#2F2E41"/>
<path d="M128.667 263.707C129.397 263.512 130.166 263.514 130.895 263.713C133.211 264.334 138.401 265.98 139.514 268.484C140.957 271.731 146.007 276.781 146.007 276.781C146.007 276.781 152.861 283.634 151.418 288.324C149.975 293.013 144.564 298.423 144.564 298.423C144.564 298.423 146.007 320.788 138.793 326.559C131.578 332.331 128.693 328.363 128.693 333.773C128.693 339.184 106.329 356.138 102 345.677C102 345.677 104.164 326.198 103.443 319.345C102.732 312.59 103.773 270.447 128.667 263.707Z" fill="#D0CDE1"/>
<path d="M140.236 272.813C140.236 272.813 162.239 289.045 158.271 295.898C158.271 295.898 144.925 302.391 142.039 302.031C139.154 301.67 127.972 289.045 125.086 287.963C122.2 286.881 120.757 267.402 140.236 272.813Z" fill="#D0CDE1"/>
<path d="M238.543 236.918C248.385 236.918 256.363 228.94 256.363 219.098C256.363 209.257 248.385 201.279 238.543 201.279C228.702 201.279 220.724 209.257 220.724 219.098C220.724 228.94 228.702 236.918 238.543 236.918Z" fill="#F2F2F2"/>
<path d="M385.723 195.956H285.865V175.06H385.723V195.956ZM286.305 195.516H385.283V175.5H286.305V195.516Z" fill="#3F3D56"/>
<path d="M378.465 179.239H279.047V199.695H378.465V179.239Z" fill="#C6C2FF"/>
<path d="M216.2 159.719C217.05 159.719 217.74 159.029 217.74 158.179C217.74 157.329 217.05 156.639 216.2 156.639C215.349 156.639 214.66 157.329 214.66 158.179C214.66 159.029 215.349 159.719 216.2 159.719Z" fill="#C6C2FF"/>
<path d="M221.479 159.719C222.329 159.719 223.019 159.029 223.019 158.179C223.019 157.329 222.329 156.639 221.479 156.639C220.629 156.639 219.939 157.329 219.939 158.179C219.939 159.029 220.629 159.719 221.479 159.719Z" fill="#C6C2FF"/>
<path d="M226.758 159.719C227.608 159.719 228.298 159.029 228.298 158.179C228.298 157.329 227.608 156.639 226.758 156.639C225.908 156.639 225.218 157.329 225.218 158.179C225.218 159.029 225.908 159.719 226.758 159.719Z" fill="#C6C2FF"/>
<path d="M397 274.533H211.801V154H397V274.533ZM212.241 274.093H396.56V154.44H212.241V274.093Z" fill="white"/>
<path d="M396.78 160.672H212.021V161.112H396.78V160.672Z" fill="white"/>
<path d="M216.64 159.279C216.292 159.279 215.952 159.176 215.662 158.982C215.373 158.789 215.147 158.514 215.014 158.193C214.881 157.871 214.846 157.517 214.914 157.176C214.982 156.835 215.15 156.521 215.396 156.275C215.642 156.029 215.955 155.861 216.297 155.793C216.638 155.726 216.992 155.76 217.313 155.894C217.635 156.027 217.91 156.252 218.103 156.542C218.296 156.831 218.4 157.171 218.4 157.519C218.399 157.986 218.213 158.433 217.884 158.763C217.554 159.093 217.106 159.278 216.64 159.279ZM216.64 156.2C216.379 156.2 216.124 156.277 215.907 156.422C215.69 156.567 215.521 156.773 215.421 157.014C215.321 157.255 215.295 157.521 215.346 157.777C215.397 158.033 215.522 158.268 215.707 158.452C215.891 158.637 216.127 158.763 216.383 158.814C216.639 158.864 216.904 158.838 217.145 158.738C217.386 158.639 217.592 158.469 217.737 158.252C217.882 158.035 217.96 157.78 217.96 157.519C217.959 157.169 217.82 156.834 217.573 156.586C217.325 156.339 216.99 156.2 216.64 156.2V156.2Z" fill="#3F3D56"/>
<path d="M221.919 159.279C221.571 159.279 221.231 159.176 220.941 158.982C220.652 158.789 220.426 158.514 220.293 158.193C220.16 157.871 220.125 157.517 220.193 157.176C220.261 156.835 220.428 156.521 220.675 156.275C220.921 156.029 221.234 155.861 221.576 155.793C221.917 155.726 222.271 155.76 222.592 155.894C222.914 156.027 223.189 156.252 223.382 156.542C223.575 156.831 223.678 157.171 223.678 157.519C223.678 157.986 223.492 158.433 223.162 158.763C222.833 159.093 222.385 159.278 221.919 159.279V159.279ZM221.919 156.2C221.658 156.2 221.403 156.277 221.186 156.422C220.969 156.567 220.799 156.773 220.7 157.014C220.6 157.255 220.574 157.521 220.624 157.777C220.675 158.033 220.801 158.268 220.986 158.452C221.17 158.637 221.405 158.763 221.661 158.814C221.917 158.864 222.183 158.838 222.424 158.738C222.665 158.639 222.871 158.469 223.016 158.252C223.161 158.035 223.239 157.78 223.239 157.519C223.238 157.169 223.099 156.834 222.852 156.586C222.604 156.339 222.269 156.2 221.919 156.2V156.2Z" fill="#3F3D56"/>
<path d="M227.198 159.279C226.85 159.279 226.509 159.176 226.22 158.982C225.931 158.789 225.705 158.514 225.572 158.193C225.439 157.871 225.404 157.517 225.472 157.176C225.54 156.835 225.707 156.521 225.953 156.275C226.199 156.029 226.513 155.861 226.854 155.793C227.196 155.726 227.549 155.76 227.871 155.894C228.193 156.027 228.467 156.252 228.661 156.542C228.854 156.831 228.957 157.171 228.957 157.519C228.957 157.986 228.771 158.433 228.441 158.763C228.111 159.093 227.664 159.278 227.198 159.279V159.279ZM227.198 156.199C226.937 156.199 226.681 156.277 226.464 156.422C226.247 156.567 226.078 156.773 225.978 157.014C225.878 157.255 225.852 157.521 225.903 157.777C225.954 158.033 226.08 158.268 226.264 158.452C226.449 158.637 226.684 158.763 226.94 158.814C227.196 158.864 227.461 158.838 227.703 158.738C227.944 158.639 228.15 158.469 228.295 158.252C228.44 158.035 228.517 157.78 228.517 157.519C228.517 157.169 228.378 156.834 228.13 156.586C227.883 156.339 227.547 156.2 227.198 156.199V156.199Z" fill="#3F3D56"/>
<path d="M270.248 160.892H269.808V274.484H270.248V160.892Z" fill="white"/>
<path d="M323.147 216.741H290.814V221.14H323.147V216.741Z" fill="#F2F2F2"/>
<path d="M373.956 216.741H341.623V221.14H373.956V216.741Z" fill="#F2F2F2"/>
<path d="M325.127 219.161H292.354V214.322H325.127V219.161ZM292.794 218.721H324.687V214.761H292.794V218.721Z" fill="#3F3D56"/>
<path d="M323.147 250.833H290.814V255.232H323.147V250.833Z" fill="#F2F2F2"/>
<path d="M325.127 253.253H292.354V248.414H325.127V253.253ZM292.794 252.813H324.687V248.854H292.794V252.813Z" fill="#3F3D56"/>
<path d="M374.066 233.347H290.924V237.746H374.066V233.347Z" fill="#F2F2F2"/>
<path d="M376.045 236.207H292.464V231.368H376.045V236.207ZM292.904 235.767H375.605V231.808H292.904V235.767Z" fill="#3F3D56"/>
<path d="M375.935 219.161H343.163V214.322H375.935V219.161ZM343.602 218.721H375.495V214.761H343.602V218.721Z" fill="#3F3D56"/>
<path d="M241.559 232.258C237.98 232.258 234.482 231.196 231.506 229.208C228.531 227.22 226.212 224.394 224.842 221.088C223.473 217.782 223.114 214.144 223.813 210.634C224.511 207.124 226.234 203.9 228.764 201.37C231.295 198.839 234.519 197.116 238.029 196.418C241.538 195.72 245.177 196.078 248.483 197.447C251.789 198.817 254.615 201.136 256.603 204.111C258.591 207.087 259.652 210.585 259.652 214.164C259.647 218.961 257.739 223.56 254.347 226.952C250.955 230.344 246.356 232.252 241.559 232.258ZM241.559 196.618C238.088 196.618 234.696 197.647 231.811 199.575C228.926 201.503 226.677 204.243 225.349 207.449C224.021 210.655 223.673 214.183 224.35 217.587C225.027 220.99 226.698 224.117 229.152 226.57C231.606 229.024 234.732 230.695 238.136 231.372C241.539 232.049 245.067 231.702 248.273 230.374C251.479 229.046 254.219 226.797 256.147 223.912C258.075 221.026 259.104 217.634 259.104 214.164C259.099 209.512 257.248 205.052 253.959 201.763C250.67 198.474 246.21 196.624 241.559 196.618Z" fill="#3F3D56"/>
<path d="M384.664 358.091H307.08V358.639H384.664V358.091Z" fill="#3F3D56"/>
</g>
<defs>
<clipPath id="clip0">
<rect width="295" height="207.044" fill="white" transform="translate(102 154)"/>
</clipPath>
</defs>
</svg>
